M48
;GenerationSoftware,Autodesk,EAGLE,9.5.1*%
;CreationDate,2019-12-31T20:16:04Z*%
FMAT,2
ICI,OFF
METRIC,TZ,000.000
T9C0.400
T8C0.813
T7C1.016
T6C1.100
T5C2.100
T4C2.184
T3C2.692
T2C3.099
T1C3.200
%
G90
M71
T1
X94615Y5080
X5080Y74930
X94615Y74930
X5080Y5080
T2
X83820Y66750
T3
X79020Y69850
X83820Y72850
T4
X49530Y4191
X49530Y8890
X49530Y13589
T5
X22280Y10160
X61540Y10160
X13280Y10160
X37520Y10160
X28520Y10160
X85780Y10160
X76780Y10160
X70540Y10160
T6
X46990Y53650
X46990Y50650
X72390Y62150
X72390Y53650
X72390Y50650
X59690Y62150
X59690Y53650
X59690Y50650
X52070Y77390
X52070Y68890
X52070Y65890
X64770Y77390
X64770Y68890
X64770Y65890
X13970Y77390
X13970Y68890
X13970Y65890
X26670Y77390
X26670Y68890
X26670Y65890
X8890Y62150
X8890Y53650
X8890Y50650
X34290Y62150
X34290Y53650
X34290Y50650
X21590Y62150
X21590Y53650
X21590Y50650
X15280Y3160
X17780Y3160
X30520Y3160
X35520Y3160
X46990Y62150
X39370Y65890
X78780Y3160
X20280Y3160
X83780Y3160
X39370Y68890
X39370Y77390
X63540Y3160
X66040Y3160
X68540Y3160
X33020Y3160
X81280Y3160
T7
X10160Y31750
X5080Y31750
X7620Y41910
T8
X24130Y38100
X24130Y40640
X64770Y40640
X64770Y38100
X64770Y25400
X72390Y25400
X64770Y35560
X64770Y33020
X64770Y27940
X64770Y30480
X72390Y27940
X72390Y30480
X72390Y33020
X72390Y35560
X72390Y38100
X72390Y40640
X38100Y40640
X38100Y38100
X38100Y25400
X45720Y25400
X38100Y35560
X38100Y33020
X38100Y27940
X38100Y30480
X45720Y27940
X45720Y30480
X45720Y33020
X45720Y35560
X45720Y38100
X45720Y40640
X10160Y15240
X10160Y7620
X45720Y69850
X45720Y77470
X58420Y69850
X58420Y77470
X71120Y76200
X71120Y68580
X25400Y15240
X25400Y7620
X20320Y77470
X20320Y69850
X33020Y77470
X33020Y69850
X59690Y29210
X59690Y21590
X27940Y25400
X16510Y33020
X76200Y30480
X76200Y38100
X55880Y21590
X55880Y29210
X34290Y33020
X34290Y40640
X27940Y62230
X27940Y54610
X15240Y62230
X15240Y54610
X38100Y44450
X45720Y44450
X10160Y19050
X10160Y26670
X41910Y7620
X41910Y15240
X53340Y62230
X53340Y54610
X66040Y62230
X66040Y54610
X52070Y29210
X52070Y21590
X29210Y33020
X29210Y40640
X40640Y62230
X40640Y54610
X72390Y44450
X64770Y44450
X96520Y44450
X96520Y52070
X77470Y17780
X85090Y17780
X52070Y31750
X59690Y31750
X31750Y40640
X31750Y33020
X72390Y21590
X64770Y21590
X52070Y45720
X81280Y56896
X81280Y54864
X86360Y54610
X86360Y57150
X81280Y48260
X81280Y45720
X87630Y45720
X87630Y48260
X21590Y48006
X21590Y45974
X78486Y25400
X76454Y25400
X31750Y22860
X31750Y17780
X52070Y38100
X59690Y45720
X59690Y38100
X55880Y45720
X55880Y38100
X85090Y40640
X85090Y38100
X85090Y25400
X92710Y25400
X85090Y35560
X85090Y33020
X85090Y27940
X85090Y30480
X92710Y27940
X92710Y30480
X92710Y33020
X92710Y35560
X92710Y38100
X92710Y40640
X92710Y54610
X35560Y25400
X94615Y53340
X92710Y52070
X16510Y40640
X16510Y38100
X16510Y25400
X24130Y25400
X16510Y35560
X16510Y27940
X16510Y30480
X24130Y27940
X24130Y30480
X24130Y33020
X24130Y35560
X8890Y48006
X8890Y45974
X96520Y21590
X96520Y13970
X91440Y19050
X91440Y16510
X74930Y72390
X76835Y73660
X74930Y74930
X80010Y62230
X87630Y62230
X96520Y62230
X96520Y54610
X81280Y38100
X81280Y30480
T9
X25603Y45339
X12268Y38938
X13868Y33071
X9068Y36805
X67208Y25070
X56540Y23470
X69875Y24003
X50140Y42672
X34138Y29870
X23470Y22936
M30