G04 EAGLE Gerber RS-274X export*
G75*
%MOMM*%
%FSLAX34Y34*%
%LPD*%
%IN*%
%IPPOS*%
%AMOC8*
5,1,8,0,0,1.08239X$1,22.5*%
G01*
%ADD10C,0.076200*%
%ADD11C,0.000000*%


D10*
X0Y756820D02*
X0Y43180D01*
X13Y42137D01*
X50Y41094D01*
X113Y40052D01*
X202Y39013D01*
X315Y37975D01*
X453Y36941D01*
X616Y35910D01*
X804Y34884D01*
X1017Y33862D01*
X1255Y32846D01*
X1517Y31836D01*
X1803Y30833D01*
X2113Y29837D01*
X2448Y28848D01*
X2806Y27868D01*
X3188Y26897D01*
X3593Y25935D01*
X4021Y24984D01*
X4472Y24043D01*
X4946Y23113D01*
X5442Y22195D01*
X5960Y21289D01*
X6500Y20396D01*
X7061Y19517D01*
X7644Y18651D01*
X8247Y17799D01*
X8870Y16963D01*
X9514Y16141D01*
X10177Y15336D01*
X10859Y14546D01*
X11561Y13774D01*
X12280Y13018D01*
X13018Y12280D01*
X13774Y11561D01*
X14546Y10859D01*
X15336Y10177D01*
X16141Y9514D01*
X16963Y8870D01*
X17799Y8247D01*
X18651Y7644D01*
X19517Y7061D01*
X20396Y6500D01*
X21289Y5960D01*
X22195Y5442D01*
X23113Y4946D01*
X24043Y4472D01*
X24984Y4021D01*
X25935Y3593D01*
X26897Y3188D01*
X27868Y2806D01*
X28848Y2448D01*
X29837Y2113D01*
X30833Y1803D01*
X31836Y1517D01*
X32846Y1255D01*
X33862Y1017D01*
X34884Y804D01*
X35910Y616D01*
X36941Y453D01*
X37975Y315D01*
X39013Y202D01*
X40052Y113D01*
X41094Y50D01*
X42137Y13D01*
X43180Y0D01*
X956820Y0D01*
X957863Y13D01*
X958906Y50D01*
X959948Y113D01*
X960987Y202D01*
X962025Y315D01*
X963059Y453D01*
X964090Y616D01*
X965116Y804D01*
X966138Y1017D01*
X967154Y1255D01*
X968164Y1517D01*
X969167Y1803D01*
X970163Y2113D01*
X971152Y2448D01*
X972132Y2806D01*
X973103Y3188D01*
X974065Y3593D01*
X975016Y4021D01*
X975957Y4472D01*
X976887Y4946D01*
X977805Y5442D01*
X978711Y5960D01*
X979604Y6500D01*
X980483Y7061D01*
X981349Y7644D01*
X982201Y8247D01*
X983037Y8870D01*
X983859Y9514D01*
X984664Y10177D01*
X985454Y10859D01*
X986226Y11561D01*
X986982Y12280D01*
X987720Y13018D01*
X988439Y13774D01*
X989141Y14546D01*
X989823Y15336D01*
X990486Y16141D01*
X991130Y16963D01*
X991753Y17799D01*
X992356Y18651D01*
X992939Y19517D01*
X993500Y20396D01*
X994040Y21289D01*
X994558Y22195D01*
X995054Y23113D01*
X995528Y24043D01*
X995979Y24984D01*
X996407Y25935D01*
X996812Y26897D01*
X997194Y27868D01*
X997552Y28848D01*
X997887Y29837D01*
X998197Y30833D01*
X998483Y31836D01*
X998745Y32846D01*
X998983Y33862D01*
X999196Y34884D01*
X999384Y35910D01*
X999547Y36941D01*
X999685Y37975D01*
X999798Y39013D01*
X999887Y40052D01*
X999950Y41094D01*
X999987Y42137D01*
X1000000Y43180D01*
X1000000Y756820D01*
X999987Y757863D01*
X999950Y758906D01*
X999887Y759948D01*
X999798Y760987D01*
X999685Y762025D01*
X999547Y763059D01*
X999384Y764090D01*
X999196Y765116D01*
X998983Y766138D01*
X998745Y767154D01*
X998483Y768164D01*
X998197Y769167D01*
X997887Y770163D01*
X997552Y771152D01*
X997194Y772132D01*
X996812Y773103D01*
X996407Y774065D01*
X995979Y775016D01*
X995528Y775957D01*
X995054Y776887D01*
X994558Y777805D01*
X994040Y778711D01*
X993500Y779604D01*
X992939Y780483D01*
X992356Y781349D01*
X991753Y782201D01*
X991130Y783037D01*
X990486Y783859D01*
X989823Y784664D01*
X989141Y785454D01*
X988439Y786226D01*
X987720Y786982D01*
X986982Y787720D01*
X986226Y788439D01*
X985454Y789141D01*
X984664Y789823D01*
X983859Y790486D01*
X983037Y791130D01*
X982201Y791753D01*
X981349Y792356D01*
X980483Y792939D01*
X979604Y793500D01*
X978711Y794040D01*
X977805Y794558D01*
X976887Y795054D01*
X975957Y795528D01*
X975016Y795979D01*
X974065Y796407D01*
X973103Y796812D01*
X972132Y797194D01*
X971152Y797552D01*
X970163Y797887D01*
X969167Y798197D01*
X968164Y798483D01*
X967154Y798745D01*
X966138Y798983D01*
X965116Y799196D01*
X964090Y799384D01*
X963059Y799547D01*
X962025Y799685D01*
X960987Y799798D01*
X959948Y799887D01*
X958906Y799950D01*
X957863Y799987D01*
X956820Y800000D01*
X43180Y800000D01*
X42137Y799987D01*
X41094Y799950D01*
X40052Y799887D01*
X39013Y799798D01*
X37975Y799685D01*
X36941Y799547D01*
X35910Y799384D01*
X34884Y799196D01*
X33862Y798983D01*
X32846Y798745D01*
X31836Y798483D01*
X30833Y798197D01*
X29837Y797887D01*
X28848Y797552D01*
X27868Y797194D01*
X26897Y796812D01*
X25935Y796407D01*
X24984Y795979D01*
X24043Y795528D01*
X23113Y795054D01*
X22195Y794558D01*
X21289Y794040D01*
X20396Y793500D01*
X19517Y792939D01*
X18651Y792356D01*
X17799Y791753D01*
X16963Y791130D01*
X16141Y790486D01*
X15336Y789823D01*
X14546Y789141D01*
X13774Y788439D01*
X13018Y787720D01*
X12280Y786982D01*
X11561Y786226D01*
X10859Y785454D01*
X10177Y784664D01*
X9514Y783859D01*
X8870Y783037D01*
X8247Y782201D01*
X7644Y781349D01*
X7061Y780483D01*
X6500Y779604D01*
X5960Y778711D01*
X5442Y777805D01*
X4946Y776887D01*
X4472Y775957D01*
X4021Y775016D01*
X3593Y774065D01*
X3188Y773103D01*
X2806Y772132D01*
X2448Y771152D01*
X2113Y770163D01*
X1803Y769167D01*
X1517Y768164D01*
X1255Y767154D01*
X1017Y766138D01*
X804Y765116D01*
X616Y764090D01*
X453Y763059D01*
X315Y762025D01*
X202Y760987D01*
X113Y759948D01*
X50Y758906D01*
X13Y757863D01*
X0Y756820D01*
D11*
X34800Y749300D02*
X34805Y749693D01*
X34819Y750085D01*
X34843Y750477D01*
X34877Y750868D01*
X34920Y751259D01*
X34973Y751648D01*
X35036Y752035D01*
X35107Y752421D01*
X35189Y752806D01*
X35279Y753188D01*
X35380Y753567D01*
X35489Y753945D01*
X35608Y754319D01*
X35735Y754690D01*
X35872Y755058D01*
X36018Y755423D01*
X36173Y755784D01*
X36336Y756141D01*
X36508Y756494D01*
X36689Y756842D01*
X36879Y757186D01*
X37076Y757526D01*
X37282Y757860D01*
X37496Y758189D01*
X37719Y758513D01*
X37949Y758831D01*
X38186Y759144D01*
X38432Y759450D01*
X38685Y759751D01*
X38945Y760045D01*
X39212Y760333D01*
X39486Y760614D01*
X39767Y760888D01*
X40055Y761155D01*
X40349Y761415D01*
X40650Y761668D01*
X40956Y761914D01*
X41269Y762151D01*
X41587Y762381D01*
X41911Y762604D01*
X42240Y762818D01*
X42574Y763024D01*
X42914Y763221D01*
X43258Y763411D01*
X43606Y763592D01*
X43959Y763764D01*
X44316Y763927D01*
X44677Y764082D01*
X45042Y764228D01*
X45410Y764365D01*
X45781Y764492D01*
X46155Y764611D01*
X46533Y764720D01*
X46912Y764821D01*
X47294Y764911D01*
X47679Y764993D01*
X48065Y765064D01*
X48452Y765127D01*
X48841Y765180D01*
X49232Y765223D01*
X49623Y765257D01*
X50015Y765281D01*
X50407Y765295D01*
X50800Y765300D01*
X51193Y765295D01*
X51585Y765281D01*
X51977Y765257D01*
X52368Y765223D01*
X52759Y765180D01*
X53148Y765127D01*
X53535Y765064D01*
X53921Y764993D01*
X54306Y764911D01*
X54688Y764821D01*
X55067Y764720D01*
X55445Y764611D01*
X55819Y764492D01*
X56190Y764365D01*
X56558Y764228D01*
X56923Y764082D01*
X57284Y763927D01*
X57641Y763764D01*
X57994Y763592D01*
X58342Y763411D01*
X58686Y763221D01*
X59026Y763024D01*
X59360Y762818D01*
X59689Y762604D01*
X60013Y762381D01*
X60331Y762151D01*
X60644Y761914D01*
X60950Y761668D01*
X61251Y761415D01*
X61545Y761155D01*
X61833Y760888D01*
X62114Y760614D01*
X62388Y760333D01*
X62655Y760045D01*
X62915Y759751D01*
X63168Y759450D01*
X63414Y759144D01*
X63651Y758831D01*
X63881Y758513D01*
X64104Y758189D01*
X64318Y757860D01*
X64524Y757526D01*
X64721Y757186D01*
X64911Y756842D01*
X65092Y756494D01*
X65264Y756141D01*
X65427Y755784D01*
X65582Y755423D01*
X65728Y755058D01*
X65865Y754690D01*
X65992Y754319D01*
X66111Y753945D01*
X66220Y753567D01*
X66321Y753188D01*
X66411Y752806D01*
X66493Y752421D01*
X66564Y752035D01*
X66627Y751648D01*
X66680Y751259D01*
X66723Y750868D01*
X66757Y750477D01*
X66781Y750085D01*
X66795Y749693D01*
X66800Y749300D01*
X66795Y748907D01*
X66781Y748515D01*
X66757Y748123D01*
X66723Y747732D01*
X66680Y747341D01*
X66627Y746952D01*
X66564Y746565D01*
X66493Y746179D01*
X66411Y745794D01*
X66321Y745412D01*
X66220Y745033D01*
X66111Y744655D01*
X65992Y744281D01*
X65865Y743910D01*
X65728Y743542D01*
X65582Y743177D01*
X65427Y742816D01*
X65264Y742459D01*
X65092Y742106D01*
X64911Y741758D01*
X64721Y741414D01*
X64524Y741074D01*
X64318Y740740D01*
X64104Y740411D01*
X63881Y740087D01*
X63651Y739769D01*
X63414Y739456D01*
X63168Y739150D01*
X62915Y738849D01*
X62655Y738555D01*
X62388Y738267D01*
X62114Y737986D01*
X61833Y737712D01*
X61545Y737445D01*
X61251Y737185D01*
X60950Y736932D01*
X60644Y736686D01*
X60331Y736449D01*
X60013Y736219D01*
X59689Y735996D01*
X59360Y735782D01*
X59026Y735576D01*
X58686Y735379D01*
X58342Y735189D01*
X57994Y735008D01*
X57641Y734836D01*
X57284Y734673D01*
X56923Y734518D01*
X56558Y734372D01*
X56190Y734235D01*
X55819Y734108D01*
X55445Y733989D01*
X55067Y733880D01*
X54688Y733779D01*
X54306Y733689D01*
X53921Y733607D01*
X53535Y733536D01*
X53148Y733473D01*
X52759Y733420D01*
X52368Y733377D01*
X51977Y733343D01*
X51585Y733319D01*
X51193Y733305D01*
X50800Y733300D01*
X50407Y733305D01*
X50015Y733319D01*
X49623Y733343D01*
X49232Y733377D01*
X48841Y733420D01*
X48452Y733473D01*
X48065Y733536D01*
X47679Y733607D01*
X47294Y733689D01*
X46912Y733779D01*
X46533Y733880D01*
X46155Y733989D01*
X45781Y734108D01*
X45410Y734235D01*
X45042Y734372D01*
X44677Y734518D01*
X44316Y734673D01*
X43959Y734836D01*
X43606Y735008D01*
X43258Y735189D01*
X42914Y735379D01*
X42574Y735576D01*
X42240Y735782D01*
X41911Y735996D01*
X41587Y736219D01*
X41269Y736449D01*
X40956Y736686D01*
X40650Y736932D01*
X40349Y737185D01*
X40055Y737445D01*
X39767Y737712D01*
X39486Y737986D01*
X39212Y738267D01*
X38945Y738555D01*
X38685Y738849D01*
X38432Y739150D01*
X38186Y739456D01*
X37949Y739769D01*
X37719Y740087D01*
X37496Y740411D01*
X37282Y740740D01*
X37076Y741074D01*
X36879Y741414D01*
X36689Y741758D01*
X36508Y742106D01*
X36336Y742459D01*
X36173Y742816D01*
X36018Y743177D01*
X35872Y743542D01*
X35735Y743910D01*
X35608Y744281D01*
X35489Y744655D01*
X35380Y745033D01*
X35279Y745412D01*
X35189Y745794D01*
X35107Y746179D01*
X35036Y746565D01*
X34973Y746952D01*
X34920Y747341D01*
X34877Y747732D01*
X34843Y748123D01*
X34819Y748515D01*
X34805Y748907D01*
X34800Y749300D01*
X930150Y749300D02*
X930155Y749693D01*
X930169Y750085D01*
X930193Y750477D01*
X930227Y750868D01*
X930270Y751259D01*
X930323Y751648D01*
X930386Y752035D01*
X930457Y752421D01*
X930539Y752806D01*
X930629Y753188D01*
X930730Y753567D01*
X930839Y753945D01*
X930958Y754319D01*
X931085Y754690D01*
X931222Y755058D01*
X931368Y755423D01*
X931523Y755784D01*
X931686Y756141D01*
X931858Y756494D01*
X932039Y756842D01*
X932229Y757186D01*
X932426Y757526D01*
X932632Y757860D01*
X932846Y758189D01*
X933069Y758513D01*
X933299Y758831D01*
X933536Y759144D01*
X933782Y759450D01*
X934035Y759751D01*
X934295Y760045D01*
X934562Y760333D01*
X934836Y760614D01*
X935117Y760888D01*
X935405Y761155D01*
X935699Y761415D01*
X936000Y761668D01*
X936306Y761914D01*
X936619Y762151D01*
X936937Y762381D01*
X937261Y762604D01*
X937590Y762818D01*
X937924Y763024D01*
X938264Y763221D01*
X938608Y763411D01*
X938956Y763592D01*
X939309Y763764D01*
X939666Y763927D01*
X940027Y764082D01*
X940392Y764228D01*
X940760Y764365D01*
X941131Y764492D01*
X941505Y764611D01*
X941883Y764720D01*
X942262Y764821D01*
X942644Y764911D01*
X943029Y764993D01*
X943415Y765064D01*
X943802Y765127D01*
X944191Y765180D01*
X944582Y765223D01*
X944973Y765257D01*
X945365Y765281D01*
X945757Y765295D01*
X946150Y765300D01*
X946543Y765295D01*
X946935Y765281D01*
X947327Y765257D01*
X947718Y765223D01*
X948109Y765180D01*
X948498Y765127D01*
X948885Y765064D01*
X949271Y764993D01*
X949656Y764911D01*
X950038Y764821D01*
X950417Y764720D01*
X950795Y764611D01*
X951169Y764492D01*
X951540Y764365D01*
X951908Y764228D01*
X952273Y764082D01*
X952634Y763927D01*
X952991Y763764D01*
X953344Y763592D01*
X953692Y763411D01*
X954036Y763221D01*
X954376Y763024D01*
X954710Y762818D01*
X955039Y762604D01*
X955363Y762381D01*
X955681Y762151D01*
X955994Y761914D01*
X956300Y761668D01*
X956601Y761415D01*
X956895Y761155D01*
X957183Y760888D01*
X957464Y760614D01*
X957738Y760333D01*
X958005Y760045D01*
X958265Y759751D01*
X958518Y759450D01*
X958764Y759144D01*
X959001Y758831D01*
X959231Y758513D01*
X959454Y758189D01*
X959668Y757860D01*
X959874Y757526D01*
X960071Y757186D01*
X960261Y756842D01*
X960442Y756494D01*
X960614Y756141D01*
X960777Y755784D01*
X960932Y755423D01*
X961078Y755058D01*
X961215Y754690D01*
X961342Y754319D01*
X961461Y753945D01*
X961570Y753567D01*
X961671Y753188D01*
X961761Y752806D01*
X961843Y752421D01*
X961914Y752035D01*
X961977Y751648D01*
X962030Y751259D01*
X962073Y750868D01*
X962107Y750477D01*
X962131Y750085D01*
X962145Y749693D01*
X962150Y749300D01*
X962145Y748907D01*
X962131Y748515D01*
X962107Y748123D01*
X962073Y747732D01*
X962030Y747341D01*
X961977Y746952D01*
X961914Y746565D01*
X961843Y746179D01*
X961761Y745794D01*
X961671Y745412D01*
X961570Y745033D01*
X961461Y744655D01*
X961342Y744281D01*
X961215Y743910D01*
X961078Y743542D01*
X960932Y743177D01*
X960777Y742816D01*
X960614Y742459D01*
X960442Y742106D01*
X960261Y741758D01*
X960071Y741414D01*
X959874Y741074D01*
X959668Y740740D01*
X959454Y740411D01*
X959231Y740087D01*
X959001Y739769D01*
X958764Y739456D01*
X958518Y739150D01*
X958265Y738849D01*
X958005Y738555D01*
X957738Y738267D01*
X957464Y737986D01*
X957183Y737712D01*
X956895Y737445D01*
X956601Y737185D01*
X956300Y736932D01*
X955994Y736686D01*
X955681Y736449D01*
X955363Y736219D01*
X955039Y735996D01*
X954710Y735782D01*
X954376Y735576D01*
X954036Y735379D01*
X953692Y735189D01*
X953344Y735008D01*
X952991Y734836D01*
X952634Y734673D01*
X952273Y734518D01*
X951908Y734372D01*
X951540Y734235D01*
X951169Y734108D01*
X950795Y733989D01*
X950417Y733880D01*
X950038Y733779D01*
X949656Y733689D01*
X949271Y733607D01*
X948885Y733536D01*
X948498Y733473D01*
X948109Y733420D01*
X947718Y733377D01*
X947327Y733343D01*
X946935Y733319D01*
X946543Y733305D01*
X946150Y733300D01*
X945757Y733305D01*
X945365Y733319D01*
X944973Y733343D01*
X944582Y733377D01*
X944191Y733420D01*
X943802Y733473D01*
X943415Y733536D01*
X943029Y733607D01*
X942644Y733689D01*
X942262Y733779D01*
X941883Y733880D01*
X941505Y733989D01*
X941131Y734108D01*
X940760Y734235D01*
X940392Y734372D01*
X940027Y734518D01*
X939666Y734673D01*
X939309Y734836D01*
X938956Y735008D01*
X938608Y735189D01*
X938264Y735379D01*
X937924Y735576D01*
X937590Y735782D01*
X937261Y735996D01*
X936937Y736219D01*
X936619Y736449D01*
X936306Y736686D01*
X936000Y736932D01*
X935699Y737185D01*
X935405Y737445D01*
X935117Y737712D01*
X934836Y737986D01*
X934562Y738267D01*
X934295Y738555D01*
X934035Y738849D01*
X933782Y739150D01*
X933536Y739456D01*
X933299Y739769D01*
X933069Y740087D01*
X932846Y740411D01*
X932632Y740740D01*
X932426Y741074D01*
X932229Y741414D01*
X932039Y741758D01*
X931858Y742106D01*
X931686Y742459D01*
X931523Y742816D01*
X931368Y743177D01*
X931222Y743542D01*
X931085Y743910D01*
X930958Y744281D01*
X930839Y744655D01*
X930730Y745033D01*
X930629Y745412D01*
X930539Y745794D01*
X930457Y746179D01*
X930386Y746565D01*
X930323Y746952D01*
X930270Y747341D01*
X930227Y747732D01*
X930193Y748123D01*
X930169Y748515D01*
X930155Y748907D01*
X930150Y749300D01*
X34800Y50800D02*
X34805Y51193D01*
X34819Y51585D01*
X34843Y51977D01*
X34877Y52368D01*
X34920Y52759D01*
X34973Y53148D01*
X35036Y53535D01*
X35107Y53921D01*
X35189Y54306D01*
X35279Y54688D01*
X35380Y55067D01*
X35489Y55445D01*
X35608Y55819D01*
X35735Y56190D01*
X35872Y56558D01*
X36018Y56923D01*
X36173Y57284D01*
X36336Y57641D01*
X36508Y57994D01*
X36689Y58342D01*
X36879Y58686D01*
X37076Y59026D01*
X37282Y59360D01*
X37496Y59689D01*
X37719Y60013D01*
X37949Y60331D01*
X38186Y60644D01*
X38432Y60950D01*
X38685Y61251D01*
X38945Y61545D01*
X39212Y61833D01*
X39486Y62114D01*
X39767Y62388D01*
X40055Y62655D01*
X40349Y62915D01*
X40650Y63168D01*
X40956Y63414D01*
X41269Y63651D01*
X41587Y63881D01*
X41911Y64104D01*
X42240Y64318D01*
X42574Y64524D01*
X42914Y64721D01*
X43258Y64911D01*
X43606Y65092D01*
X43959Y65264D01*
X44316Y65427D01*
X44677Y65582D01*
X45042Y65728D01*
X45410Y65865D01*
X45781Y65992D01*
X46155Y66111D01*
X46533Y66220D01*
X46912Y66321D01*
X47294Y66411D01*
X47679Y66493D01*
X48065Y66564D01*
X48452Y66627D01*
X48841Y66680D01*
X49232Y66723D01*
X49623Y66757D01*
X50015Y66781D01*
X50407Y66795D01*
X50800Y66800D01*
X51193Y66795D01*
X51585Y66781D01*
X51977Y66757D01*
X52368Y66723D01*
X52759Y66680D01*
X53148Y66627D01*
X53535Y66564D01*
X53921Y66493D01*
X54306Y66411D01*
X54688Y66321D01*
X55067Y66220D01*
X55445Y66111D01*
X55819Y65992D01*
X56190Y65865D01*
X56558Y65728D01*
X56923Y65582D01*
X57284Y65427D01*
X57641Y65264D01*
X57994Y65092D01*
X58342Y64911D01*
X58686Y64721D01*
X59026Y64524D01*
X59360Y64318D01*
X59689Y64104D01*
X60013Y63881D01*
X60331Y63651D01*
X60644Y63414D01*
X60950Y63168D01*
X61251Y62915D01*
X61545Y62655D01*
X61833Y62388D01*
X62114Y62114D01*
X62388Y61833D01*
X62655Y61545D01*
X62915Y61251D01*
X63168Y60950D01*
X63414Y60644D01*
X63651Y60331D01*
X63881Y60013D01*
X64104Y59689D01*
X64318Y59360D01*
X64524Y59026D01*
X64721Y58686D01*
X64911Y58342D01*
X65092Y57994D01*
X65264Y57641D01*
X65427Y57284D01*
X65582Y56923D01*
X65728Y56558D01*
X65865Y56190D01*
X65992Y55819D01*
X66111Y55445D01*
X66220Y55067D01*
X66321Y54688D01*
X66411Y54306D01*
X66493Y53921D01*
X66564Y53535D01*
X66627Y53148D01*
X66680Y52759D01*
X66723Y52368D01*
X66757Y51977D01*
X66781Y51585D01*
X66795Y51193D01*
X66800Y50800D01*
X66795Y50407D01*
X66781Y50015D01*
X66757Y49623D01*
X66723Y49232D01*
X66680Y48841D01*
X66627Y48452D01*
X66564Y48065D01*
X66493Y47679D01*
X66411Y47294D01*
X66321Y46912D01*
X66220Y46533D01*
X66111Y46155D01*
X65992Y45781D01*
X65865Y45410D01*
X65728Y45042D01*
X65582Y44677D01*
X65427Y44316D01*
X65264Y43959D01*
X65092Y43606D01*
X64911Y43258D01*
X64721Y42914D01*
X64524Y42574D01*
X64318Y42240D01*
X64104Y41911D01*
X63881Y41587D01*
X63651Y41269D01*
X63414Y40956D01*
X63168Y40650D01*
X62915Y40349D01*
X62655Y40055D01*
X62388Y39767D01*
X62114Y39486D01*
X61833Y39212D01*
X61545Y38945D01*
X61251Y38685D01*
X60950Y38432D01*
X60644Y38186D01*
X60331Y37949D01*
X60013Y37719D01*
X59689Y37496D01*
X59360Y37282D01*
X59026Y37076D01*
X58686Y36879D01*
X58342Y36689D01*
X57994Y36508D01*
X57641Y36336D01*
X57284Y36173D01*
X56923Y36018D01*
X56558Y35872D01*
X56190Y35735D01*
X55819Y35608D01*
X55445Y35489D01*
X55067Y35380D01*
X54688Y35279D01*
X54306Y35189D01*
X53921Y35107D01*
X53535Y35036D01*
X53148Y34973D01*
X52759Y34920D01*
X52368Y34877D01*
X51977Y34843D01*
X51585Y34819D01*
X51193Y34805D01*
X50800Y34800D01*
X50407Y34805D01*
X50015Y34819D01*
X49623Y34843D01*
X49232Y34877D01*
X48841Y34920D01*
X48452Y34973D01*
X48065Y35036D01*
X47679Y35107D01*
X47294Y35189D01*
X46912Y35279D01*
X46533Y35380D01*
X46155Y35489D01*
X45781Y35608D01*
X45410Y35735D01*
X45042Y35872D01*
X44677Y36018D01*
X44316Y36173D01*
X43959Y36336D01*
X43606Y36508D01*
X43258Y36689D01*
X42914Y36879D01*
X42574Y37076D01*
X42240Y37282D01*
X41911Y37496D01*
X41587Y37719D01*
X41269Y37949D01*
X40956Y38186D01*
X40650Y38432D01*
X40349Y38685D01*
X40055Y38945D01*
X39767Y39212D01*
X39486Y39486D01*
X39212Y39767D01*
X38945Y40055D01*
X38685Y40349D01*
X38432Y40650D01*
X38186Y40956D01*
X37949Y41269D01*
X37719Y41587D01*
X37496Y41911D01*
X37282Y42240D01*
X37076Y42574D01*
X36879Y42914D01*
X36689Y43258D01*
X36508Y43606D01*
X36336Y43959D01*
X36173Y44316D01*
X36018Y44677D01*
X35872Y45042D01*
X35735Y45410D01*
X35608Y45781D01*
X35489Y46155D01*
X35380Y46533D01*
X35279Y46912D01*
X35189Y47294D01*
X35107Y47679D01*
X35036Y48065D01*
X34973Y48452D01*
X34920Y48841D01*
X34877Y49232D01*
X34843Y49623D01*
X34819Y50015D01*
X34805Y50407D01*
X34800Y50800D01*
X930150Y50800D02*
X930155Y51193D01*
X930169Y51585D01*
X930193Y51977D01*
X930227Y52368D01*
X930270Y52759D01*
X930323Y53148D01*
X930386Y53535D01*
X930457Y53921D01*
X930539Y54306D01*
X930629Y54688D01*
X930730Y55067D01*
X930839Y55445D01*
X930958Y55819D01*
X931085Y56190D01*
X931222Y56558D01*
X931368Y56923D01*
X931523Y57284D01*
X931686Y57641D01*
X931858Y57994D01*
X932039Y58342D01*
X932229Y58686D01*
X932426Y59026D01*
X932632Y59360D01*
X932846Y59689D01*
X933069Y60013D01*
X933299Y60331D01*
X933536Y60644D01*
X933782Y60950D01*
X934035Y61251D01*
X934295Y61545D01*
X934562Y61833D01*
X934836Y62114D01*
X935117Y62388D01*
X935405Y62655D01*
X935699Y62915D01*
X936000Y63168D01*
X936306Y63414D01*
X936619Y63651D01*
X936937Y63881D01*
X937261Y64104D01*
X937590Y64318D01*
X937924Y64524D01*
X938264Y64721D01*
X938608Y64911D01*
X938956Y65092D01*
X939309Y65264D01*
X939666Y65427D01*
X940027Y65582D01*
X940392Y65728D01*
X940760Y65865D01*
X941131Y65992D01*
X941505Y66111D01*
X941883Y66220D01*
X942262Y66321D01*
X942644Y66411D01*
X943029Y66493D01*
X943415Y66564D01*
X943802Y66627D01*
X944191Y66680D01*
X944582Y66723D01*
X944973Y66757D01*
X945365Y66781D01*
X945757Y66795D01*
X946150Y66800D01*
X946543Y66795D01*
X946935Y66781D01*
X947327Y66757D01*
X947718Y66723D01*
X948109Y66680D01*
X948498Y66627D01*
X948885Y66564D01*
X949271Y66493D01*
X949656Y66411D01*
X950038Y66321D01*
X950417Y66220D01*
X950795Y66111D01*
X951169Y65992D01*
X951540Y65865D01*
X951908Y65728D01*
X952273Y65582D01*
X952634Y65427D01*
X952991Y65264D01*
X953344Y65092D01*
X953692Y64911D01*
X954036Y64721D01*
X954376Y64524D01*
X954710Y64318D01*
X955039Y64104D01*
X955363Y63881D01*
X955681Y63651D01*
X955994Y63414D01*
X956300Y63168D01*
X956601Y62915D01*
X956895Y62655D01*
X957183Y62388D01*
X957464Y62114D01*
X957738Y61833D01*
X958005Y61545D01*
X958265Y61251D01*
X958518Y60950D01*
X958764Y60644D01*
X959001Y60331D01*
X959231Y60013D01*
X959454Y59689D01*
X959668Y59360D01*
X959874Y59026D01*
X960071Y58686D01*
X960261Y58342D01*
X960442Y57994D01*
X960614Y57641D01*
X960777Y57284D01*
X960932Y56923D01*
X961078Y56558D01*
X961215Y56190D01*
X961342Y55819D01*
X961461Y55445D01*
X961570Y55067D01*
X961671Y54688D01*
X961761Y54306D01*
X961843Y53921D01*
X961914Y53535D01*
X961977Y53148D01*
X962030Y52759D01*
X962073Y52368D01*
X962107Y51977D01*
X962131Y51585D01*
X962145Y51193D01*
X962150Y50800D01*
X962145Y50407D01*
X962131Y50015D01*
X962107Y49623D01*
X962073Y49232D01*
X962030Y48841D01*
X961977Y48452D01*
X961914Y48065D01*
X961843Y47679D01*
X961761Y47294D01*
X961671Y46912D01*
X961570Y46533D01*
X961461Y46155D01*
X961342Y45781D01*
X961215Y45410D01*
X961078Y45042D01*
X960932Y44677D01*
X960777Y44316D01*
X960614Y43959D01*
X960442Y43606D01*
X960261Y43258D01*
X960071Y42914D01*
X959874Y42574D01*
X959668Y42240D01*
X959454Y41911D01*
X959231Y41587D01*
X959001Y41269D01*
X958764Y40956D01*
X958518Y40650D01*
X958265Y40349D01*
X958005Y40055D01*
X957738Y39767D01*
X957464Y39486D01*
X957183Y39212D01*
X956895Y38945D01*
X956601Y38685D01*
X956300Y38432D01*
X955994Y38186D01*
X955681Y37949D01*
X955363Y37719D01*
X955039Y37496D01*
X954710Y37282D01*
X954376Y37076D01*
X954036Y36879D01*
X953692Y36689D01*
X953344Y36508D01*
X952991Y36336D01*
X952634Y36173D01*
X952273Y36018D01*
X951908Y35872D01*
X951540Y35735D01*
X951169Y35608D01*
X950795Y35489D01*
X950417Y35380D01*
X950038Y35279D01*
X949656Y35189D01*
X949271Y35107D01*
X948885Y35036D01*
X948498Y34973D01*
X948109Y34920D01*
X947718Y34877D01*
X947327Y34843D01*
X946935Y34819D01*
X946543Y34805D01*
X946150Y34800D01*
X945757Y34805D01*
X945365Y34819D01*
X944973Y34843D01*
X944582Y34877D01*
X944191Y34920D01*
X943802Y34973D01*
X943415Y35036D01*
X943029Y35107D01*
X942644Y35189D01*
X942262Y35279D01*
X941883Y35380D01*
X941505Y35489D01*
X941131Y35608D01*
X940760Y35735D01*
X940392Y35872D01*
X940027Y36018D01*
X939666Y36173D01*
X939309Y36336D01*
X938956Y36508D01*
X938608Y36689D01*
X938264Y36879D01*
X937924Y37076D01*
X937590Y37282D01*
X937261Y37496D01*
X936937Y37719D01*
X936619Y37949D01*
X936306Y38186D01*
X936000Y38432D01*
X935699Y38685D01*
X935405Y38945D01*
X935117Y39212D01*
X934836Y39486D01*
X934562Y39767D01*
X934295Y40055D01*
X934035Y40349D01*
X933782Y40650D01*
X933536Y40956D01*
X933299Y41269D01*
X933069Y41587D01*
X932846Y41911D01*
X932632Y42240D01*
X932426Y42574D01*
X932229Y42914D01*
X932039Y43258D01*
X931858Y43606D01*
X931686Y43959D01*
X931523Y44316D01*
X931368Y44677D01*
X931222Y45042D01*
X931085Y45410D01*
X930958Y45781D01*
X930839Y46155D01*
X930730Y46533D01*
X930629Y46912D01*
X930539Y47294D01*
X930457Y47679D01*
X930386Y48065D01*
X930323Y48452D01*
X930270Y48841D01*
X930227Y49232D01*
X930193Y49623D01*
X930169Y50015D01*
X930155Y50407D01*
X930150Y50800D01*
M02*
